<?xml version="1.0" encoding="iso-8859-1"?>
<!-- Generator: Adobe Illustrator 19.0.0, SVG Export Plug-In . SVG Version: 6.00 Build 0)  -->
<svg version="1.1" id="Layer_1" xmlns="http://www.w3.org/2000/svg" xmlns:xlink="http://www.w3.org/1999/xlink" x="0px" y="0px"
	 viewBox="0 0 495 495" style="enable-background:new 0 0 495 495;" xml:space="preserve">
<g>
	<polygon style="fill:#ED539D;" points="247.5,0 247.5,40 455,40 455,455 247.5,455 247.5,495 495,495 495,0 	"/>
	<polygon style="fill:#F072AE;" points="40,455 40,40 247.5,40 247.5,0 0,0 0,495 247.5,495 247.5,455 	"/>
	<path style="fill:#F072AE;" d="M247.422,386.116c76.418,0,138.694-62.276,138.694-138.695S323.84,108.884,247.422,108.884
		c-76.42,0-138.538,62.118-138.538,138.537S171.002,386.116,247.422,386.116z M247.422,360.884c-23.878,0-46.022-7.497-64.229-20.19
		c21.169-30.02,50.464-51.912,83.539-63.725c7.874,25.231,13.072,51.439,15.024,77.993
		C270.794,358.428,259.487,360.884,247.422,360.884z M305.886,344.157c-2.457-25.23-7.403-49.958-14.9-74.087
		c21.893-4.442,44.794-4.316,67.568,0.125C352.127,301.569,332.441,328.029,305.886,344.157z M360.633,244.964
		c-26.461-4.661-52.921-4.536-78.246,1.103c-3.214-8.222-6.646-16.348-10.458-24.35c22.019-13.167,41.58-30.775,57.582-52.164
		C348.19,189.335,360.002,215.795,360.633,244.964z M247.422,134.115c23.278,0,44.792,6.993,62.747,18.932
		c-13.766,18.964-30.618,34.461-49.707,46.273c-12.064-21.672-26.46-41.957-42.683-60.795
		C227.356,135.943,237.089,134.115,247.422,134.115z M193.274,148.511c17.23,19.058,32.13,39.974,44.667,62.245
		c-31.123,13.418-66.056,17.482-100.643,11.088C144.7,190.091,165.49,163.758,193.274,148.511z M169.302,250.508
		c27.909,0,55.125-6.142,80.23-17.23c3.181,6.646,6.016,13.168,8.726,20.066c-37.044,13.167-69.773,37.39-93.996,70.623
		c-18.585-20.192-30.146-46.873-30.146-76.546C145.803,249.028,157.615,250.508,169.302,250.508z"/>
</g>
<g>
</g>
<g>
</g>
<g>
</g>
<g>
</g>
<g>
</g>
<g>
</g>
<g>
</g>
<g>
</g>
<g>
</g>
<g>
</g>
<g>
</g>
<g>
</g>
<g>
</g>
<g>
</g>
<g>
</g>
</svg>
